<?xml version="1.0" encoding="UTF-8" standalone="no"?>
<!-- Created with Inkscape (http://www.inkscape.org/) -->

<svg
   xmlns:dc="http://purl.org/dc/elements/1.1/"
   xmlns:cc="http://creativecommons.org/ns#"
   xmlns:rdf="http://www.w3.org/1999/02/22-rdf-syntax-ns#"
   xmlns:svg="http://www.w3.org/2000/svg"
   xmlns="http://www.w3.org/2000/svg"
   xmlns:sodipodi="http://sodipodi.sourceforge.net/DTD/sodipodi-0.dtd"
   xmlns:inkscape="http://www.inkscape.org/namespaces/inkscape"
   version="1.1"
   id="svg2"
   xml:space="preserve"
   width="429.14099"
   height="275.48438"
   viewBox="0 0 429.141 275.48438"
   sodipodi:docname="conceptn.ink.svg"
   inkscape:version="0.92.3 (2405546, 2018-03-11)"><metadata
     id="metadata8"><rdf:RDF><cc:Work
         rdf:about=""><dc:format>image/svg+xml</dc:format><dc:type
           rdf:resource="http://purl.org/dc/dcmitype/StillImage" /><dc:title></dc:title></cc:Work></rdf:RDF></metadata><defs
     id="defs6" /><sodipodi:namedview
     pagecolor="#ffffff"
     bordercolor="#666666"
     borderopacity="1"
     objecttolerance="10"
     gridtolerance="10"
     guidetolerance="10"
     inkscape:pageopacity="0"
     inkscape:pageshadow="2"
     inkscape:window-width="1920"
     inkscape:window-height="1016"
     id="namedview4"
     showgrid="false"
     fit-margin-top="0"
     fit-margin-left="0"
     fit-margin-right="0"
     fit-margin-bottom="0"
     inkscape:zoom="1.533468"
     inkscape:cx="120.12989"
     inkscape:cy="52.504978"
     inkscape:window-x="0"
     inkscape:window-y="27"
     inkscape:window-maximized="1"
     inkscape:current-layer="g10" /><g
     id="g10"
     inkscape:groupmode="layer"
     inkscape:label="conceptn"
     transform="matrix(1.3333333,0,0,-1.3333333,22.220203,272.38283)"><path
       d="m 21.215,25.998 h 120"
       style="fill:none;stroke:#000000;stroke-width:0.80000001;stroke-linecap:butt;stroke-linejoin:miter;stroke-miterlimit:4;stroke-dasharray:none;stroke-opacity:1"
       id="path16"
       inkscape:connector-curvature="0" /><path
       d="m 21.215,25.998 v 160"
       style="fill:none;stroke:#000000;stroke-width:0.80000001;stroke-linecap:butt;stroke-linejoin:miter;stroke-miterlimit:4;stroke-dasharray:none;stroke-opacity:1"
       id="path20"
       inkscape:connector-curvature="0" /><path
       d="m 61.215,25.998 v 160"
       style="fill:none;stroke:#000000;stroke-width:0.80000001;stroke-linecap:butt;stroke-linejoin:miter;stroke-miterlimit:4;stroke-dasharray:none;stroke-opacity:1"
       id="path24"
       inkscape:connector-curvature="0" /><path
       d="m 141.215,25.998 v 160"
       style="fill:none;stroke:#000000;stroke-width:0.80000001;stroke-linecap:butt;stroke-linejoin:miter;stroke-miterlimit:4;stroke-dasharray:none;stroke-opacity:1"
       id="path28"
       inkscape:connector-curvature="0" /><path
       d="m 101.215,25.998 v 160"
       style="fill:none;stroke:#000000;stroke-width:0.80000001;stroke-linecap:butt;stroke-linejoin:miter;stroke-miterlimit:4;stroke-dasharray:none;stroke-opacity:1"
       id="path32"
       inkscape:connector-curvature="0" /><path
       d="m 24.418,25.998 c 0,-1.765 -1.434,-3.203 -3.203,-3.203 -1.77,0 -3.203,1.438 -3.203,3.203 0,1.77 1.433,3.207 3.203,3.207 1.769,0 3.203,-1.437 3.203,-3.207 z"
       style="fill:#0000ff;fill-opacity:1;fill-rule:nonzero;stroke:#0000ff;stroke-width:0.793293;stroke-linecap:butt;stroke-linejoin:miter;stroke-miterlimit:4;stroke-dasharray:none;stroke-opacity:1"
       id="path36"
       inkscape:connector-curvature="0" /><path
       d="m 104.418,25.998 c 0,-1.765 -1.434,-3.203 -3.203,-3.203 -1.77,0 -3.203,1.438 -3.203,3.203 0,1.77 1.433,3.207 3.203,3.207 1.769,0 3.203,-1.437 3.203,-3.207 z"
       style="fill:#ff0000;fill-opacity:1;fill-rule:nonzero;stroke:#ff0000;stroke-width:0.793293;stroke-linecap:butt;stroke-linejoin:miter;stroke-miterlimit:4;stroke-dasharray:none;stroke-opacity:1"
       id="path40"
       inkscape:connector-curvature="0" /><path
       d="m 21.223,26.037 v 32.727 h 40 V 77.553 H 21.02 v 30.711 h 40.203 v 25.051 h 40.004 v 19.8 h 40 v 14.141 h -40 V 181.6"
       style="fill:none;stroke:#0000ff;stroke-width:1.60000002;stroke-linecap:butt;stroke-linejoin:miter;stroke-miterlimit:4;stroke-dasharray:none;stroke-opacity:1"
       id="path44"
       inkscape:connector-curvature="0" /><path
       d="m 101.227,25.834 v 25.254 h 40 v 16.164 h -40 V 93.315 H 60.82 v 27.675 h -39.8 v 29.496 h 40.003 v 20.407 h 40 v 10.504"
       style="fill:none;stroke:#ff0000;stroke-width:1.60000002;stroke-linecap:butt;stroke-linejoin:miter;stroke-miterlimit:4;stroke-dasharray:none;stroke-opacity:1"
       id="path48"
       inkscape:connector-curvature="0" /><path
       d="m 104.137,181.201 c 0,-1.613 -1.309,-2.922 -2.922,-2.922 -1.613,0 -2.918,1.309 -2.918,2.922 0,1.614 1.305,2.918 2.918,2.918 1.613,0 2.922,-1.304 2.922,-2.918 z"
       style="fill:#800080;fill-opacity:1;fill-rule:nonzero;stroke:#800080;stroke-width:1.36024904;stroke-linecap:butt;stroke-linejoin:miter;stroke-miterlimit:4;stroke-dasharray:none;stroke-opacity:1"
       id="path52"
       inkscape:connector-curvature="0" /><path
       d="m 181.812,26.565 h 120"
       style="fill:none;stroke:#000000;stroke-width:0.80000001;stroke-linecap:butt;stroke-linejoin:miter;stroke-miterlimit:4;stroke-dasharray:none;stroke-opacity:1"
       id="path56"
       inkscape:connector-curvature="0" /><path
       d="m 181.812,26.565 v 160"
       style="fill:none;stroke:#000000;stroke-width:0.80000001;stroke-linecap:butt;stroke-linejoin:miter;stroke-miterlimit:4;stroke-dasharray:none;stroke-opacity:1"
       id="path60"
       inkscape:connector-curvature="0" /><path
       d="m 221.812,26.565 v 160"
       style="fill:none;stroke:#000000;stroke-width:0.80000001;stroke-linecap:butt;stroke-linejoin:miter;stroke-miterlimit:4;stroke-dasharray:none;stroke-opacity:1"
       id="path64"
       inkscape:connector-curvature="0" /><path
       d="m 301.812,26.565 v 160"
       style="fill:none;stroke:#000000;stroke-width:0.80000001;stroke-linecap:butt;stroke-linejoin:miter;stroke-miterlimit:4;stroke-dasharray:none;stroke-opacity:1"
       id="path68"
       inkscape:connector-curvature="0" /><path
       d="m 261.812,26.565 v 160"
       style="fill:none;stroke:#000000;stroke-width:0.80000001;stroke-linecap:butt;stroke-linejoin:miter;stroke-miterlimit:4;stroke-dasharray:none;stroke-opacity:1"
       id="path72"
       inkscape:connector-curvature="0" /><path
       d="m 181.633,26.643 v 7.07 h 40.207 v 8.484 h -40.207 v 5.66 h 40.406 v 18.18 h 39.801 v 10.102 h -40 v 9.297 h 40 v 15.351 h 40.004 v 12.731 h -40.207 v 12.929 h -40 v 10.504 h 40.203 v 14.547 h -40.203 v 10.91 h 40.203 v 7.879 h -40.203 v 11.516 h -39.801"
       style="fill:none;stroke:#0000ff;stroke-width:1.60000002;stroke-linecap:butt;stroke-linejoin:miter;stroke-miterlimit:4;stroke-dasharray:none;stroke-opacity:1"
       id="path76"
       inkscape:connector-curvature="0" /><path
       d="m 184.871,26.697 c 0,-1.769 -1.433,-3.203 -3.203,-3.203 -1.77,0 -3.203,1.434 -3.203,3.203 0,1.77 1.433,3.203 3.203,3.203 1.77,0 3.203,-1.433 3.203,-3.203 z"
       style="fill:#0000ff;fill-opacity:1;fill-rule:nonzero;stroke:#0000ff;stroke-width:0.793293;stroke-linecap:butt;stroke-linejoin:miter;stroke-miterlimit:4;stroke-dasharray:none;stroke-opacity:1"
       id="path80"
       inkscape:connector-curvature="0" /><path
       d="m 264.992,66.252 c 0,-1.769 -1.437,-3.203 -3.207,-3.203 -1.765,0 -3.203,1.434 -3.203,3.203 0,1.77 1.438,3.203 3.203,3.203 1.77,0 3.207,-1.433 3.207,-3.203 z"
       style="fill:#0000ff;fill-opacity:1;fill-rule:nonzero;stroke:#0000ff;stroke-width:0.793293;stroke-linecap:butt;stroke-linejoin:miter;stroke-miterlimit:4;stroke-dasharray:none;stroke-opacity:1"
       id="path84"
       inkscape:connector-curvature="0" /><path
       d="m 185.059,181.799 c 0,-1.77 -1.434,-3.203 -3.204,-3.203 -1.769,0 -3.203,1.433 -3.203,3.203 0,1.769 1.434,3.203 3.203,3.203 1.77,0 3.204,-1.434 3.204,-3.203 z"
       style="fill:#0000ff;fill-opacity:1;fill-rule:nonzero;stroke:#0000ff;stroke-width:0.793293;stroke-linecap:butt;stroke-linejoin:miter;stroke-miterlimit:4;stroke-dasharray:none;stroke-opacity:1"
       id="path88"
       inkscape:connector-curvature="0" /><text
       id="text100"
       style="font-variant:normal;font-weight:normal;font-size:11.19999981px;font-family:'DejaVu Sans';-inkscape-font-specification:DejaVuSans;writing-mode:lr-tb;fill:#000000;fill-opacity:1;fill-rule:nonzero;stroke:none"
       transform="scale(1,-1)"
       x="17.185112"
       y="-12.800003"><tspan
         id="tspan90"
         sodipodi:role="line"
         y="-12.800003"
         x="17.185112 57.594711">12</tspan><tspan
         id="tspan92"
         y="-12.958597"
         x="97.562462">3</tspan><tspan
         id="tspan94"
         sodipodi:role="line"
         y="-12.800003"
         x="137.86871 178.00952 218.41911">412</tspan><tspan
         id="tspan96"
         y="-12.958597"
         x="258.38745">3</tspan><tspan
         id="tspan98"
         y="-12.800003"
         x="298.69373">4</tspan></text>
<path
       d="m 4.008,25.998 v 160.09"
       style="fill:none;stroke:#000000;stroke-width:0.80000001;stroke-linecap:butt;stroke-linejoin:miter;stroke-miterlimit:4;stroke-dasharray:none;stroke-opacity:1"
       id="path104"
       inkscape:connector-curvature="0" /><path
       d="M 4.008,178.088 7.207,174.889 4.008,186.088 0.809,174.889 Z"
       style="fill:#000000;fill-opacity:1;fill-rule:evenodd;stroke:#000000;stroke-width:0.80000001;stroke-linecap:butt;stroke-linejoin:miter;stroke-miterlimit:4;stroke-dasharray:none;stroke-opacity:1"
       id="path108"
       inkscape:connector-curvature="0" /><text
       id="text116"
       style="font-variant:normal;font-weight:normal;font-size:12px;font-family:'DejaVu Sans';-inkscape-font-specification:DejaVuSans;writing-mode:lr-tb;fill:#000000;fill-opacity:1;fill-rule:nonzero;stroke:none"
       transform="scale(1,-1)"
       x="25.015581"
       y="-195.16994"><tspan
         id="tspan114"
         sodipodi:role="line"
         y="-195.16994"
         x="25.015581 33.391582 40.723579 48.067581 51.391579 58.77158 65.011581 71.599579 78.979584 86.61158 93.199577 100.57958 104.38358 111.35558 114.67958 126.36758 194.69557 203.07158 210.40358 222.09158 233.77959 241.41158 246.11559 253.49557 257.29959 264.25958 267.58359 279.27158">Coalescence TimeCommute Time</tspan></text>
<text
       y="-0.16993676"
       x="49.015583"
       transform="scale(1,-1)"
       style="font-style:normal;font-variant:normal;font-weight:normal;font-stretch:normal;font-size:12px;font-family:'DejaVu Sans';-inkscape-font-specification:'DejaVu Sans, Normal';font-variant-ligatures:normal;font-variant-caps:normal;font-variant-numeric:normal;font-feature-settings:normal;text-align:start;writing-mode:lr-tb;text-anchor:start;fill:#000000;fill-opacity:1;fill-rule:nonzero;stroke:none"
       id="text977"><tspan
         sodipodi:role="line"
         id="tspan979"
         x="49.015583"
         y="-0.16993676">population</tspan></text>
<text
       id="text983"
       style="font-style:normal;font-variant:normal;font-weight:normal;font-stretch:normal;font-size:12px;font-family:'DejaVu Sans';-inkscape-font-specification:'DejaVu Sans, Normal';font-variant-ligatures:normal;font-variant-caps:normal;font-variant-numeric:normal;font-feature-settings:normal;text-align:start;writing-mode:lr-tb;text-anchor:start;fill:#000000;fill-opacity:1;fill-rule:nonzero;stroke:none"
       transform="scale(1,-1)"
       x="211.01559"
       y="-0.16993676"><tspan
         y="-0.16993676"
         x="211.01559"
         id="tspan981"
         sodipodi:role="line">population</tspan></text>
<text
       xml:space="preserve"
       style="font-style:normal;font-variant:normal;font-weight:normal;font-stretch:normal;font-size:12px;line-height:125%;font-family:sans-serif;-inkscape-font-specification:'sans-serif, Normal';font-variant-ligatures:normal;font-variant-caps:normal;font-variant-numeric:normal;font-feature-settings:normal;text-align:center;letter-spacing:0px;word-spacing:0px;writing-mode:lr-tb;text-anchor:middle;fill:#000000;fill-opacity:1;stroke:none;stroke-width:0.75px;stroke-linecap:butt;stroke-linejoin:miter;stroke-opacity:1"
       x="93.732559"
       y="-7.547965"
       id="text987"
       transform="matrix(0,1,1,0,0,0)"><tspan
         sodipodi:role="line"
         id="tspan985"
         x="93.732559"
         y="-7.547965"
         style="stroke-width:0.75px">time ago</tspan></text>
</g></svg>